<svg xmlns="http://www.w3.org/2000/svg" xmlns:xlink="http://www.w3.org/1999/xlink" width="200" zoomAndPan="magnify" viewBox="0 0 150 104.999996" height="140" preserveAspectRatio="xMidYMid meet" version="1.0"><path fill="#39312c" d="M 139.648438 47.855469 C 138.996094 52.648438 134.703125 54.757812 130.308594 53.425781 C 129.855469 53.289062 129.421875 53.164062 129.027344 53.046875 C 124.28125 51.6875 123.488281 51.902344 123.488281 51.902344 C 123.488281 51.902344 122.773438 51.675781 118.53125 52.6875 C 117.953125 52.820312 117.324219 52.984375 116.609375 53.171875 C 112.171875 54.324219 107.957031 52.066406 107.488281 47.253906 C 107.0625 42.792969 110.457031 40.242188 113.28125 37.441406 C 115.285156 35.46875 116.332031 32.710938 118.453125 30.835938 C 119.496094 29.910156 120.796875 29.167969 122.167969 28.882812 C 122.257812 28.863281 123.929688 28.648438 123.929688 28.808594 C 123.929688 28.648438 125.578125 28.925781 125.671875 28.953125 C 127.03125 29.296875 128.304688 30.070312 129.316406 31.042969 C 131.363281 33 132.300781 35.785156 134.234375 37.835938 C 136.949219 40.738281 140.242188 43.421875 139.648438 47.855469 " fill-opacity="1" fill-rule="nonzero"/><path fill="#39312c" d="M 136.355469 21.492188 C 135.386719 25.402344 132.25 28 129.351562 27.285156 C 126.453125 26.566406 124.894531 22.808594 125.867188 18.898438 C 126.835938 14.980469 129.972656 12.382812 132.871094 13.105469 C 135.765625 13.816406 137.328125 17.574219 136.355469 21.492188 " fill-opacity="1" fill-rule="nonzero"/><path fill="#39312c" d="M 122.179688 19.699219 C 122.539062 23.71875 120.398438 27.1875 117.40625 27.449219 C 114.410156 27.710938 111.691406 24.664062 111.339844 20.644531 C 110.988281 16.628906 113.128906 13.160156 116.125 12.898438 C 119.117188 12.636719 121.824219 15.683594 122.179688 19.699219 " fill-opacity="1" fill-rule="nonzero"/><path fill="#39312c" d="M 111.234375 27.808594 C 112.738281 31.0625 111.9375 34.621094 109.445312 35.773438 C 106.957031 36.925781 103.707031 35.226562 102.210938 31.972656 C 100.703125 28.726562 101.496094 25.160156 103.988281 24.007812 C 106.484375 22.855469 109.726562 24.558594 111.234375 27.808594 " fill-opacity="1" fill-rule="nonzero"/><path fill="#39312c" d="M 136.488281 28.285156 C 134.855469 31.476562 135.523438 35.070312 137.96875 36.316406 C 140.414062 37.558594 143.726562 35.980469 145.351562 32.792969 C 146.972656 29.601562 146.316406 26.007812 143.871094 24.765625 C 141.425781 23.511719 138.121094 25.097656 136.488281 28.285156 " fill-opacity="1" fill-rule="nonzero"/><path fill="#ead8cd" d="M 131.308594 40.523438 C 131.019531 42.019531 130.496094 43.082031 129.992188 44.675781 C 129.476562 46.261719 129.703125 47.894531 129.585938 49.152344 C 129.371094 51.316406 129.214844 52.460938 129.027344 53.046875 C 124.28125 51.6875 123.488281 51.902344 123.488281 51.902344 C 123.488281 51.902344 122.773438 51.675781 118.53125 52.6875 C 116.554688 51.351562 115.128906 49.40625 112.910156 48.289062 C 112.632812 48.144531 112.332031 48 112.125 47.777344 C 111.917969 47.558594 111.828125 47.226562 111.992188 46.964844 C 112.34375 46.378906 113.507812 46.398438 114.121094 46.488281 C 114.824219 46.605469 115.507812 46.867188 116.085938 47.234375 C 116.402344 47.441406 116.84375 47.6875 117.25 47.929688 C 117.917969 48.324219 118.578125 48.578125 119.027344 47.703125 C 119.40625 46.972656 119.40625 45.867188 119.183594 45.117188 C 118.882812 44.164062 118.503906 43.207031 118.191406 42.242188 C 117.980469 41.621094 117.667969 41.027344 117.503906 40.394531 C 117.367188 39.847656 117.144531 39.441406 116.863281 38.226562 C 116.574219 37.019531 117.042969 36.558594 117.449219 36.414062 C 118.308594 36.109375 118.8125 37.152344 119.039062 37.695312 C 119.535156 38.882812 119.976562 40.089844 120.492188 41.269531 C 120.707031 41.765625 120.949219 42.28125 121.238281 42.746094 C 121.328125 42.890625 121.421875 43.046875 121.574219 43.152344 C 121.628906 43.191406 121.707031 43.242188 121.789062 43.214844 C 121.898438 43.179688 121.917969 43.035156 121.925781 42.945312 C 121.933594 42.839844 121.898438 42.730469 121.878906 42.621094 C 121.863281 42.496094 121.84375 42.378906 121.835938 42.253906 C 121.800781 42.019531 121.78125 41.773438 121.753906 41.53125 C 121.71875 41.152344 121.683594 40.773438 121.65625 40.394531 C 121.628906 39.992188 121.617188 39.585938 121.628906 39.171875 C 121.644531 38.054688 121.394531 36.925781 121.582031 35.800781 C 121.664062 35.296875 121.71875 34.664062 122.277344 34.394531 C 122.726562 34.160156 123.351562 34.296875 123.558594 34.71875 C 123.8125 35.25 123.8125 35.917969 123.839844 36.484375 C 123.902344 37.539062 124.136719 39.476562 124.253906 40.460938 C 124.371094 41.441406 124.378906 42.972656 124.542969 42.855469 C 124.703125 42.738281 124.640625 41.972656 124.648438 41.722656 C 124.648438 41.46875 124.757812 39.710938 124.839844 38.675781 C 124.929688 37.628906 124.730469 36.566406 124.949219 35.792969 C 125.171875 35.015625 125.445312 34.917969 125.894531 34.890625 C 126.609375 34.855469 126.960938 35.835938 127.050781 36.324219 C 127.160156 36.917969 127.097656 37.558594 127.140625 38.152344 C 127.238281 39.304688 127.332031 40.441406 127.25 41.605469 C 127.230469 41.8125 127.078125 43.503906 127.421875 43.585938 C 127.835938 43.683594 128.132812 42.695312 128.339844 42.324219 C 128.539062 41.957031 129.117188 40.386719 129.496094 39.277344 C 129.867188 38.171875 130.136719 37.484375 130.957031 37.628906 C 131.789062 37.785156 131.597656 39.019531 131.308594 40.523438 " fill-opacity="1" fill-rule="nonzero"/><path fill="#39312c" d="M 4.359375 32.765625 C 4.359375 41.136719 7.851562 48.144531 15.0625 48.144531 C 18.957031 48.144531 21.683594 46.316406 23.5625 43.007812 L 23.5625 48.144531 L 36.980469 48.144531 L 36.980469 47.785156 C 35.253906 47.34375 34.597656 45.722656 34.597656 43.007812 L 34.597656 5.582031 L 34.226562 5.582031 C 34.109375 5.664062 33.964844 5.734375 33.785156 5.808594 C 31.167969 6.832031 24.84375 8.742188 21.097656 8.742188 L 21.097656 9.113281 C 22.019531 9.113281 23.5625 10.511719 23.5625 13.960938 L 23.5625 21.230469 C 21.757812 19.574219 19.402344 18.257812 16.351562 18.257812 C 8.113281 18.257812 4.359375 25.339844 4.359375 32.765625 Z M 19.664062 20.277344 C 21.386719 20.277344 23.046875 21.78125 23.5625 22.917969 L 23.5625 40.730469 C 23.40625 41.722656 22.75 44.144531 20.175781 44.144531 C 15.539062 44.144531 15.464844 36.503906 15.464844 32.027344 C 15.464844 27.546875 15.023438 20.277344 19.664062 20.277344 Z M 19.664062 20.277344 " fill-opacity="1" fill-rule="nonzero"/><path fill="#39312c" d="M 53.5625 48.847656 C 61.695312 48.847656 68.351562 43.191406 68.351562 33.566406 C 68.351562 23.945312 61.730469 18.257812 53.601562 18.257812 C 45.480469 18.257812 38.820312 23.945312 38.820312 33.566406 C 38.820312 43.191406 45.441406 48.847656 53.5625 48.847656 Z M 50.765625 33.53125 C 50.765625 25.53125 50.476562 19.058594 53.5625 19.058594 C 56.660156 19.058594 56.359375 25.53125 56.359375 33.53125 C 56.359375 41.613281 56.660156 48.074219 53.5625 48.074219 C 50.476562 48.074219 50.765625 41.613281 50.765625 33.53125 Z M 50.765625 33.53125 " fill-opacity="1" fill-rule="nonzero"/><path fill="#39312c" d="M 82.582031 61.335938 C 90.308594 61.335938 98.988281 58.101562 98.988281 51.558594 C 98.988281 47.703125 95.234375 45.28125 91.335938 45.28125 C 86.699219 45.28125 83.902344 47.453125 79.675781 47.453125 C 78.828125 47.453125 77.871094 47.082031 77.871094 46.234375 C 77.871094 43.261719 83.097656 43.261719 85.191406 43.261719 C 93.394531 43.261719 98.871094 38.269531 98.871094 30.738281 C 98.871094 25.816406 96.558594 22.296875 93.058594 20.242188 C 89.71875 18.222656 89.792969 14.617188 90.558594 15.355469 C 90.929688 15.71875 91.300781 18.367188 94.386719 18.367188 C 97.4375 18.367188 98.941406 16.050781 98.941406 13.699219 C 98.941406 11.3125 97.183594 8.78125 93.65625 8.816406 C 90.632812 8.851562 88.835938 11.167969 88.800781 13.816406 C 88.765625 15.683594 89.351562 17.664062 90.75 19.167969 C 89.054688 18.546875 87.140625 18.257812 85.191406 18.257812 C 77.023438 18.257812 71.546875 23.25 71.546875 30.738281 C 71.546875 37.207031 75.589844 41.792969 81.878906 42.972656 C 77.140625 43.007812 72.574219 46.269531 72.574219 50.386719 C 72.574219 50.9375 72.648438 51.414062 72.800781 51.894531 C 71.84375 52.992188 71.292969 53.804688 71.292969 55.273438 C 71.292969 59.535156 76.511719 61.335938 82.582031 61.335938 Z M 85.191406 18.917969 C 88.167969 18.917969 87.761719 23.65625 87.761719 30.78125 C 87.761719 37.9375 88.167969 42.675781 85.191406 42.675781 C 82.214844 42.675781 82.621094 37.9375 82.621094 30.78125 C 82.621094 23.65625 82.214844 18.917969 85.191406 18.917969 Z M 72.027344 55.308594 C 72.027344 54.351562 72.433594 53.46875 73.125 52.738281 C 74.308594 55.054688 77.140625 56.40625 80.011719 56.40625 C 85.894531 56.40625 88.71875 53.660156 92.507812 53.660156 C 93.5 53.660156 94.351562 54.171875 94.351562 55.054688 C 94.351562 58.136719 88.503906 60.707031 82.65625 60.707031 C 77.945312 60.707031 72.027344 59.417969 72.027344 55.308594 Z M 72.027344 55.308594 " fill-opacity="1" fill-rule="nonzero"/><path fill="#39312c" d="M 3.339844 65.667969 C 4.257812 65.667969 5.800781 67.058594 5.800781 70.515625 L 5.800781 86.886719 C 5.800781 89.609375 5.136719 91.222656 3.410156 91.664062 L 3.410156 92.035156 L 19.230469 92.035156 L 19.230469 91.664062 C 17.496094 91.222656 16.839844 89.609375 16.839844 86.886719 L 16.839844 70.699219 C 16.839844 68.203125 18.265625 65.886719 20.582031 65.886719 C 22.902344 65.886719 23.308594 68.488281 23.308594 70.515625 L 23.308594 86.886719 C 23.308594 89.609375 22.648438 91.222656 20.917969 91.664062 L 20.917969 92.035156 L 36.726562 92.035156 L 36.726562 91.664062 C 35.003906 91.222656 34.34375 89.609375 34.34375 86.886719 C 34.34375 84.320312 34.296875 76.058594 34.296875 70.660156 C 34.296875 68.203125 35.734375 65.886719 38.015625 65.886719 C 40.335938 65.886719 40.742188 68.488281 40.742188 70.515625 L 40.742188 86.886719 C 40.742188 89.609375 40.074219 91.222656 38.351562 91.664062 L 38.351562 92.035156 L 54.160156 92.035156 L 54.160156 91.664062 C 52.4375 91.222656 51.769531 89.609375 51.769531 86.886719 L 51.769531 71.90625 C 51.769531 68.09375 50.777344 62.136719 43.277344 62.136719 C 38.792969 62.136719 35.148438 65.109375 34.011719 68.347656 C 33.269531 65.183594 31.25 62.136719 25.84375 62.136719 C 21.65625 62.136719 18.226562 64.75 16.839844 67.6875 L 16.839844 62.136719 L 16.46875 62.136719 C 16.359375 62.210938 16.207031 62.289062 16.027344 62.363281 C 13.410156 63.390625 7.09375 65.300781 3.339844 65.300781 Z M 3.339844 65.667969 " fill-opacity="1" fill-rule="nonzero"/><path fill="#39312c" d="M 56 85.09375 C 56 89.789062 59.5625 92.726562 63.570312 92.726562 C 67.46875 92.726562 70.410156 90.746094 71.882812 86.121094 C 72.105469 89.277344 74.054688 92.726562 78.027344 92.726562 C 81.480469 92.726562 83.945312 91.332031 85.941406 90.195312 L 85.941406 89.824219 C 83.800781 89.824219 83.140625 87.664062 83.140625 84.90625 L 83.140625 74.589844 C 83.140625 70.515625 80.75 62.136719 69.238281 62.136719 C 61.179688 62.136719 57.804688 66.21875 57.804688 69.597656 C 57.804688 71.867188 59.527344 73.742188 62.171875 73.742188 C 65.636719 73.742188 66.628906 70.515625 69.347656 70.515625 C 70.085938 70.515625 71.1875 70.734375 71.1875 71.722656 C 71.1875 75.03125 56 73.707031 56 85.09375 Z M 66.992188 82.042969 C 66.992188 73.230469 71.84375 74.519531 71.84375 71.617188 C 71.84375 70.4375 70.851562 70.066406 69.824219 69.597656 C 68.652344 69.039062 67.359375 68.164062 67.359375 65.992188 C 67.359375 65.21875 67.695312 62.6875 69.238281 62.6875 C 72.144531 62.6875 71.84375 67.976562 71.84375 70.03125 L 71.84375 84.976562 C 71.84375 85.382812 70.816406 86.230469 69.824219 86.230469 C 67.945312 86.230469 66.992188 84.058594 66.992188 82.042969 Z M 66.992188 82.042969 " fill-opacity="1" fill-rule="nonzero"/><path fill="#39312c" d="M 88.765625 63.5 L 88.765625 78.625 C 88.765625 85.535156 89.9375 92.761719 98.066406 92.761719 C 101.59375 92.761719 103.589844 90.851562 103.589844 88.953125 C 100.457031 88.953125 99.800781 85.789062 99.800781 78.625 L 99.800781 63.5 L 103.398438 63.5 L 103.398438 62.796875 L 99.800781 62.796875 L 99.800781 57.660156 L 99.429688 57.660156 C 96.597656 60.261719 90.054688 62.796875 86.300781 62.796875 L 86.300781 63.5 Z M 88.765625 63.5 " fill-opacity="1" fill-rule="nonzero"/><path fill="#39312c" d="M 119.472656 92.726562 C 125.542969 92.726562 131.273438 88.796875 131.273438 83.664062 C 129.730469 84.285156 128.257812 84.609375 126.609375 84.609375 C 121.933594 84.609375 118.109375 82.671875 115.835938 79.03125 L 119.136719 79.03125 C 128.007812 79.03125 131.75 76.5 131.75 71.652344 C 131.75 66.472656 127.050781 62.171875 118.703125 62.171875 C 110.203125 62.171875 104.140625 69.003906 104.140625 77.453125 C 104.140625 85.898438 110.980469 92.726562 119.472656 92.726562 Z M 115.429688 78.339844 C 114.246094 76.167969 113.585938 73.453125 113.585938 70.21875 C 113.585938 67.425781 114.652344 62.984375 118.035156 62.984375 C 120.90625 62.984375 122.195312 66.949219 122.195312 70.03125 C 122.195312 73.886719 120.535156 78.339844 115.644531 78.339844 Z M 115.429688 78.339844 " fill-opacity="1" fill-rule="nonzero"/></svg>